<svg xmlns="http://www.w3.org/2000/svg" viewBox="0 0 25 25" height="25" width="25"><title>circle-stroked.svg</title><rect fill="none" x="0" y="0" width="25" height="25"></rect><rect x="2" y="2" rx="8" ry="8" width="21.5" height="21.5" stroke="#ffffff" style="stroke-linejoin:round;stroke-miterlimit:4;" fill="#ffffff" stroke-width="4"></rect><rect x="2" y="2" width="21.5" height="21.5" rx="8" ry="8" fill="#3d3d3d"></rect><path fill="#ffffff" transform="translate(5 5)" d="M7.5 12.3C4.84898 12.3 2.7 10.151 2.7 7.5C2.7 4.84898 4.84898 2.7 7.5 2.7C10.151 2.7 12.3 4.84898 12.3 7.5C12.3 10.151 10.151 12.3 7.5 12.3ZM7.5 14C11.0899 14 14 11.0899 14 7.5C14 3.9101 11.0899 1 7.5 1C3.9101 1 1 3.9101 1 7.5C1 11.0899 3.9101 14 7.5 14Z"></path></svg>