<svg xmlns="http://www.w3.org/2000/svg" viewBox="0 0 25 25" height="25" width="25"><title>star-stroked.svg</title><rect fill="none" x="0" y="0" width="25" height="25"></rect><rect x="2" y="2" rx="8" ry="8" width="21.5" height="21.5" stroke="#ffffff" style="stroke-linejoin:round;stroke-miterlimit:4;" fill="#ffffff" stroke-width="4"></rect><rect x="2" y="2" width="21.5" height="21.5" rx="8" ry="8" fill="#3d3d3d"></rect><path fill="#ffffff" transform="translate(5 5)" d="m7.5 2.69 1.07 2.68.25.63h3l-2 1.75-.5.44.23.63 1 3.13-2.48-1.77-.57-.4-.57.4-2.52 1.77 1-3.13.21-.63-.5-.44-2-1.75h3l.25-.63zm0-2.69-2 5h-5l4 3.5-2 6 5-3.5 5 3.5-2-6 4-3.5h-5z"></path></svg>